<svg version="1.1"
	 xmlns="http://www.w3.org/2000/svg" xmlns:xlink="http://www.w3.org/1999/xlink" x="0px" y="0px"
	 viewBox="0 0 460 264"
	 class="downvote"
	 fill="#ff6450"
	 style="enable-background:new 0 0 460 264;" xml:space="preserve">
	<g>
		<path id="svg_3" d="M39.3,22.3l200.8,200.8c4.3,4.3,4.3,11.3,0,15.6l-4.9,4.9c-4.3,4.3-11.3,4.3-15.6,0L18.8,42.8
		c-4.3-4.3-4.3-11.3,0-15.6l4.9-4.9C28.1,18,35,18,39.3,22.3z"/>
		<path id="svg_2" d="M438.2,42.8L237.3,243.6c-4.3,4.3-11.3,4.3-15.6,0l-4.9-4.9c-4.3-4.3-4.3-11.3,0-15.6L417.7,22.3
		c4.3-4.3,11.3-4.3,15.6,0l4.9,4.9C442.5,31.5,442.5,38.5,438.2,42.8z"/>
	</g>
</svg>