<svg id="Слой_1" data-name="Слой 1" xmlns="http://www.w3.org/2000/svg" xmlns:xlink="http://www.w3.org/1999/xlink" viewBox="0 0 1000 1000"><defs><style>.cls-1,.cls-4{fill:none;}.cls-2{clip-path:url(#clip-path);}.cls-3{fill:url(#Безымянный_градиент_22);}.cls-4{stroke-linecap:round;stroke-linejoin:round;stroke-width:31px;stroke:url(#Безымянный_градиент_22-2);}</style><clipPath id="clip-path"><path class="cls-1" d="M401.38,453.72H372.12a14.19,14.19,0,0,1-14.21-14.21V425.3a28.45,28.45,0,0,1,28.42-28.42h28.42a28.36,28.36,0,0,1,20,8.26A65.14,65.14,0,0,0,401.38,453.72Zm-29.26-99.46a28.42,28.42,0,1,1,28.42,28.41A28.44,28.44,0,0,1,372.12,354.26Zm213.13,108V475a21.32,21.32,0,0,1-21.31,21.32H436.06A21.32,21.32,0,0,1,414.75,475V462.25a51.16,51.16,0,0,1,51.15-51.16h3.68a68.63,68.63,0,0,0,60.84,0h3.68A51.16,51.16,0,0,1,585.25,462.25Zm-135-115.1A49.73,49.73,0,1,1,500,396.88,49.7,49.7,0,0,1,450.27,347.15ZM642.09,425.3v14.21a14.19,14.19,0,0,1-14.21,14.21h-29.3a65,65,0,0,0-33.35-48.58,28.36,28.36,0,0,1,20-8.26h28.42A28.45,28.45,0,0,1,642.09,425.3Zm-71.05-71a28.42,28.42,0,1,1,28.42,28.41A28.45,28.45,0,0,1,571,354.26Z"/></clipPath><linearGradient id="Безымянный_градиент_22" x1="267" y1="380" x2="758" y2="380" gradientUnits="userSpaceOnUse"><stop offset="0" stop-color="#f2c94c"/><stop offset="1" stop-color="#f2994a"/></linearGradient><linearGradient id="Безымянный_градиент_22-2" x1="122.18" y1="490.07" x2="877.82" y2="490.07" xlink:href="#Безымянный_градиент_22"/></defs><g class="cls-2"><rect class="cls-3" x="267" y="240" width="491" height="280"/></g><path class="cls-4" d="M819.17,460.5H814.5V820.18a53.32,53.32,0,0,1-53.32,53.32H624.5a55.5,55.5,0,0,1-55-48.07V689a69.5,69.5,0,0,0-139,0V825.43a55.5,55.5,0,0,1-55,48.07H238.82a53.32,53.32,0,0,1-53.32-53.32V460.5h-4.67c-40.21,0-58.48-50.21-27.68-76.05L472.33,116.71a43.07,43.07,0,0,1,55.34,0L699.5,260.85V164.79a18.29,18.29,0,0,1,18.29-18.29h20.42a18.29,18.29,0,0,1,18.29,18.29V308.66l90.35,75.79C877.65,410.29,859.38,460.5,819.17,460.5Z"/></svg>