<?xml version="1.0" encoding="utf-8"?>
<!-- Generator: Adobe Illustrator 24.2.1, SVG Export Plug-In . SVG Version: 6.00 Build 0)  -->
<svg version="1.1" id="Слой_1" xmlns="http://www.w3.org/2000/svg" xmlns:xlink="http://www.w3.org/1999/xlink" x="0px" y="0px"
	 viewBox="0 0 755 714" style="enable-background:new 0 0 755 714;" xml:space="preserve">
<style type="text/css">
	.st0{fill:none;stroke:url(#SVGID_1_);stroke-width:21;stroke-miterlimit:10;}
	.st1{fill:none;stroke:url(#SVGID_2_);stroke-width:21;stroke-miterlimit:10;}
	.st2{fill:none;stroke:url(#SVGID_3_);stroke-width:15;stroke-linecap:round;stroke-miterlimit:10;}
	.st3{fill:none;stroke:url(#SVGID_4_);stroke-width:15;stroke-linecap:round;stroke-miterlimit:10;}
	.st4{fill:none;stroke:url(#SVGID_5_);stroke-width:15;stroke-linecap:round;stroke-miterlimit:10;}
	.st5{fill:none;stroke:url(#SVGID_6_);stroke-width:15;stroke-linecap:round;stroke-miterlimit:10;}
	.st6{fill:none;stroke:url(#SVGID_7_);stroke-width:15;stroke-linecap:round;stroke-miterlimit:10;}
	.st7{fill:none;stroke:url(#SVGID_8_);stroke-width:15;stroke-linecap:round;stroke-miterlimit:10;}
	.st8{fill:none;stroke:url(#SVGID_9_);stroke-width:15;stroke-linecap:round;stroke-miterlimit:10;}
	.st9{fill:none;stroke:url(#SVGID_10_);stroke-width:15;stroke-linecap:round;stroke-miterlimit:10;}
	.st10{fill:none;stroke:url(#SVGID_11_);stroke-width:15;stroke-linecap:round;stroke-miterlimit:10;}
	.st11{fill:none;stroke:url(#SVGID_12_);stroke-width:15;stroke-linecap:round;stroke-miterlimit:10;}
	.st12{fill:none;stroke:url(#SVGID_13_);stroke-width:15;stroke-linecap:round;stroke-miterlimit:10;}
	.st13{fill:none;stroke:url(#SVGID_14_);stroke-width:15;stroke-linecap:round;stroke-miterlimit:10;}
	.st14{fill:none;stroke:url(#SVGID_15_);stroke-width:15;stroke-linecap:round;stroke-miterlimit:10;}
	.st15{fill:none;stroke:url(#SVGID_16_);stroke-width:15;stroke-linecap:round;stroke-miterlimit:10;}
	.st16{fill:none;stroke:url(#SVGID_17_);stroke-width:15;stroke-linecap:round;stroke-miterlimit:10;}
	.st17{fill:none;stroke:url(#SVGID_18_);stroke-width:15;stroke-linecap:round;stroke-miterlimit:10;}
	.st18{fill:none;stroke:url(#SVGID_19_);stroke-width:15;stroke-linecap:round;stroke-miterlimit:10;}
	.st19{fill:none;stroke:url(#SVGID_20_);stroke-width:15;stroke-linecap:round;stroke-miterlimit:10;}
	.st20{fill:none;stroke:url(#SVGID_21_);stroke-width:15;stroke-linecap:round;stroke-miterlimit:10;}
	.st21{fill:none;stroke:url(#SVGID_22_);stroke-width:15;stroke-linecap:round;stroke-miterlimit:10;}
	.st22{fill:none;stroke:url(#SVGID_23_);stroke-width:15;stroke-linecap:round;stroke-miterlimit:10;}
	.st23{fill:none;stroke:url(#SVGID_24_);stroke-width:15;stroke-linecap:round;stroke-miterlimit:10;}
	.st24{fill:none;stroke:url(#SVGID_25_);stroke-width:15;stroke-linecap:round;stroke-miterlimit:10;}
	.st25{fill:none;stroke:url(#SVGID_26_);stroke-width:15;stroke-linecap:round;stroke-miterlimit:10;}
	.st26{fill:none;stroke:url(#SVGID_27_);stroke-width:15;stroke-linecap:round;stroke-miterlimit:10;}
	.st27{fill:none;stroke:url(#SVGID_28_);stroke-width:15;stroke-linecap:round;stroke-miterlimit:10;}
	.st28{fill:none;stroke:url(#SVGID_29_);stroke-width:15;stroke-linecap:round;stroke-miterlimit:10;}
	.st29{fill:none;stroke:url(#SVGID_30_);stroke-width:15;stroke-linecap:round;stroke-miterlimit:10;}
	.st30{fill:none;stroke:url(#SVGID_31_);stroke-width:15;stroke-linecap:round;stroke-miterlimit:10;}
	.st31{fill:none;stroke:url(#SVGID_32_);stroke-width:15;stroke-linecap:round;stroke-miterlimit:10;}
	.st32{fill:url(#SVGID_33_);}
</style>
<linearGradient id="SVGID_1_" gradientUnits="userSpaceOnUse" x1="368" y1="333.75" x2="711" y2="333.75">
	<stop  offset="0" style="stop-color:#FFFFFF"/>
	<stop  offset="0" style="stop-color:#F2C94C"/>
	<stop  offset="1" style="stop-color:#F2994A"/>
</linearGradient>
<path class="st0" d="M700.5,185.3V517h-322V150.5h287.2C684.9,150.5,700.5,166.1,700.5,185.3C700.5,185.3,700.5,185.3,700.5,185.3z"
	/>
<linearGradient id="SVGID_2_" gradientUnits="userSpaceOnUse" x1="58" y1="268.25" x2="389" y2="268.25">
	<stop  offset="0" style="stop-color:#FFFFFF"/>
	<stop  offset="0" style="stop-color:#F2C94C"/>
	<stop  offset="1" style="stop-color:#F2994A"/>
</linearGradient>
<path class="st1" d="M378.5,51.1V517h-310V51.1c0-17.5,14.2-31.6,31.6-31.6h246.7C364.3,19.5,378.5,33.7,378.5,51.1
	C378.5,51.1,378.5,51.1,378.5,51.1z"/>
<linearGradient id="SVGID_3_" gradientUnits="userSpaceOnUse" x1="104" y1="132" x2="119" y2="132">
	<stop  offset="0" style="stop-color:#FFFFFF"/>
	<stop  offset="0" style="stop-color:#F2C94C"/>
	<stop  offset="1" style="stop-color:#F2994A"/>
</linearGradient>
<line class="st2" x1="111.5" y1="94.5" x2="111.5" y2="169.5"/>
<linearGradient id="SVGID_4_" gradientUnits="userSpaceOnUse" x1="104.5" y1="170" x2="194.5" y2="170">
	<stop  offset="0" style="stop-color:#FFFFFF"/>
	<stop  offset="0" style="stop-color:#F2C94C"/>
	<stop  offset="1" style="stop-color:#F2994A"/>
</linearGradient>
<line class="st3" x1="187" y1="170" x2="112" y2="170"/>
<linearGradient id="SVGID_5_" gradientUnits="userSpaceOnUse" x1="253" y1="132" x2="268" y2="132">
	<stop  offset="0" style="stop-color:#FFFFFF"/>
	<stop  offset="0" style="stop-color:#F2C94C"/>
	<stop  offset="1" style="stop-color:#F2994A"/>
</linearGradient>
<line class="st4" x1="260.5" y1="94.5" x2="260.5" y2="169.5"/>
<linearGradient id="SVGID_6_" gradientUnits="userSpaceOnUse" x1="253.5" y1="170" x2="343.5" y2="170">
	<stop  offset="0" style="stop-color:#FFFFFF"/>
	<stop  offset="0" style="stop-color:#F2C94C"/>
	<stop  offset="1" style="stop-color:#F2994A"/>
</linearGradient>
<line class="st5" x1="336" y1="170" x2="261" y2="170"/>
<linearGradient id="SVGID_7_" gradientUnits="userSpaceOnUse" x1="104" y1="265.5" x2="119" y2="265.5">
	<stop  offset="0" style="stop-color:#FFFFFF"/>
	<stop  offset="0" style="stop-color:#F2C94C"/>
	<stop  offset="1" style="stop-color:#F2994A"/>
</linearGradient>
<line class="st6" x1="111.5" y1="228" x2="111.5" y2="303"/>
<linearGradient id="SVGID_8_" gradientUnits="userSpaceOnUse" x1="104.5" y1="303.5" x2="194.5" y2="303.5">
	<stop  offset="0" style="stop-color:#FFFFFF"/>
	<stop  offset="0" style="stop-color:#F2C94C"/>
	<stop  offset="1" style="stop-color:#F2994A"/>
</linearGradient>
<line class="st7" x1="187" y1="303.5" x2="112" y2="303.5"/>
<linearGradient id="SVGID_9_" gradientUnits="userSpaceOnUse" x1="253" y1="265.5" x2="268" y2="265.5">
	<stop  offset="0" style="stop-color:#FFFFFF"/>
	<stop  offset="0" style="stop-color:#F2C94C"/>
	<stop  offset="1" style="stop-color:#F2994A"/>
</linearGradient>
<line class="st8" x1="260.5" y1="228" x2="260.5" y2="303"/>
<linearGradient id="SVGID_10_" gradientUnits="userSpaceOnUse" x1="253.5" y1="303.5" x2="343.5" y2="303.5">
	<stop  offset="0" style="stop-color:#FFFFFF"/>
	<stop  offset="0" style="stop-color:#F2C94C"/>
	<stop  offset="1" style="stop-color:#F2994A"/>
</linearGradient>
<line class="st9" x1="336" y1="303.5" x2="261" y2="303.5"/>
<linearGradient id="SVGID_11_" gradientUnits="userSpaceOnUse" x1="104" y1="399" x2="119" y2="399">
	<stop  offset="0" style="stop-color:#FFFFFF"/>
	<stop  offset="0" style="stop-color:#F2C94C"/>
	<stop  offset="1" style="stop-color:#F2994A"/>
</linearGradient>
<line class="st10" x1="111.5" y1="361.5" x2="111.5" y2="436.5"/>
<linearGradient id="SVGID_12_" gradientUnits="userSpaceOnUse" x1="104.5" y1="437" x2="194.5" y2="437">
	<stop  offset="0" style="stop-color:#FFFFFF"/>
	<stop  offset="0" style="stop-color:#F2C94C"/>
	<stop  offset="1" style="stop-color:#F2994A"/>
</linearGradient>
<line class="st11" x1="187" y1="437" x2="112" y2="437"/>
<linearGradient id="SVGID_13_" gradientUnits="userSpaceOnUse" x1="253" y1="399" x2="268" y2="399">
	<stop  offset="0" style="stop-color:#FFFFFF"/>
	<stop  offset="0" style="stop-color:#F2C94C"/>
	<stop  offset="1" style="stop-color:#F2994A"/>
</linearGradient>
<line class="st12" x1="260.5" y1="361.5" x2="260.5" y2="436.5"/>
<linearGradient id="SVGID_14_" gradientUnits="userSpaceOnUse" x1="253.5" y1="437" x2="343.5" y2="437">
	<stop  offset="0" style="stop-color:#FFFFFF"/>
	<stop  offset="0" style="stop-color:#F2C94C"/>
	<stop  offset="1" style="stop-color:#F2994A"/>
</linearGradient>
<line class="st13" x1="336" y1="437" x2="261" y2="437"/>
<linearGradient id="SVGID_15_" gradientUnits="userSpaceOnUse" x1="410" y1="227.5" x2="425" y2="227.5">
	<stop  offset="0" style="stop-color:#FFFFFF"/>
	<stop  offset="0" style="stop-color:#F2C94C"/>
	<stop  offset="1" style="stop-color:#F2994A"/>
</linearGradient>
<line class="st14" x1="417.5" y1="198.5" x2="417.5" y2="256.5"/>
<linearGradient id="SVGID_16_" gradientUnits="userSpaceOnUse" x1="411" y1="256.5" x2="484" y2="256.5">
	<stop  offset="0" style="stop-color:#FFFFFF"/>
	<stop  offset="0" style="stop-color:#F2C94C"/>
	<stop  offset="1" style="stop-color:#F2994A"/>
</linearGradient>
<line class="st15" x1="476.5" y1="256.5" x2="418.5" y2="256.5"/>
<linearGradient id="SVGID_17_" gradientUnits="userSpaceOnUse" x1="506" y1="227.5" x2="521" y2="227.5">
	<stop  offset="0" style="stop-color:#FFFFFF"/>
	<stop  offset="0" style="stop-color:#F2C94C"/>
	<stop  offset="1" style="stop-color:#F2994A"/>
</linearGradient>
<line class="st16" x1="513.5" y1="198.5" x2="513.5" y2="256.5"/>
<linearGradient id="SVGID_18_" gradientUnits="userSpaceOnUse" x1="507" y1="256.5" x2="580" y2="256.5">
	<stop  offset="0" style="stop-color:#FFFFFF"/>
	<stop  offset="0" style="stop-color:#F2C94C"/>
	<stop  offset="1" style="stop-color:#F2994A"/>
</linearGradient>
<line class="st17" x1="572.5" y1="256.5" x2="514.5" y2="256.5"/>
<linearGradient id="SVGID_19_" gradientUnits="userSpaceOnUse" x1="602" y1="227.5" x2="617" y2="227.5">
	<stop  offset="0" style="stop-color:#FFFFFF"/>
	<stop  offset="0" style="stop-color:#F2C94C"/>
	<stop  offset="1" style="stop-color:#F2994A"/>
</linearGradient>
<line class="st18" x1="609.5" y1="198.5" x2="609.5" y2="256.5"/>
<linearGradient id="SVGID_20_" gradientUnits="userSpaceOnUse" x1="603" y1="256.5" x2="676" y2="256.5">
	<stop  offset="0" style="stop-color:#FFFFFF"/>
	<stop  offset="0" style="stop-color:#F2C94C"/>
	<stop  offset="1" style="stop-color:#F2994A"/>
</linearGradient>
<line class="st19" x1="668.5" y1="256.5" x2="610.5" y2="256.5"/>
<linearGradient id="SVGID_21_" gradientUnits="userSpaceOnUse" x1="410" y1="328.5" x2="425" y2="328.5">
	<stop  offset="0" style="stop-color:#FFFFFF"/>
	<stop  offset="0" style="stop-color:#F2C94C"/>
	<stop  offset="1" style="stop-color:#F2994A"/>
</linearGradient>
<line class="st20" x1="417.5" y1="299.5" x2="417.5" y2="357.5"/>
<linearGradient id="SVGID_22_" gradientUnits="userSpaceOnUse" x1="411" y1="357.5" x2="484" y2="357.5">
	<stop  offset="0" style="stop-color:#FFFFFF"/>
	<stop  offset="0" style="stop-color:#F2C94C"/>
	<stop  offset="1" style="stop-color:#F2994A"/>
</linearGradient>
<line class="st21" x1="476.5" y1="357.5" x2="418.5" y2="357.5"/>
<linearGradient id="SVGID_23_" gradientUnits="userSpaceOnUse" x1="506" y1="328.5" x2="521" y2="328.5">
	<stop  offset="0" style="stop-color:#FFFFFF"/>
	<stop  offset="0" style="stop-color:#F2C94C"/>
	<stop  offset="1" style="stop-color:#F2994A"/>
</linearGradient>
<line class="st22" x1="513.5" y1="299.5" x2="513.5" y2="357.5"/>
<linearGradient id="SVGID_24_" gradientUnits="userSpaceOnUse" x1="507" y1="357.5" x2="580" y2="357.5">
	<stop  offset="0" style="stop-color:#FFFFFF"/>
	<stop  offset="0" style="stop-color:#F2C94C"/>
	<stop  offset="1" style="stop-color:#F2994A"/>
</linearGradient>
<line class="st23" x1="572.5" y1="357.5" x2="514.5" y2="357.5"/>
<linearGradient id="SVGID_25_" gradientUnits="userSpaceOnUse" x1="602" y1="328.5" x2="617" y2="328.5">
	<stop  offset="0" style="stop-color:#FFFFFF"/>
	<stop  offset="0" style="stop-color:#F2C94C"/>
	<stop  offset="1" style="stop-color:#F2994A"/>
</linearGradient>
<line class="st24" x1="609.5" y1="299.5" x2="609.5" y2="357.5"/>
<linearGradient id="SVGID_26_" gradientUnits="userSpaceOnUse" x1="603" y1="357.5" x2="676" y2="357.5">
	<stop  offset="0" style="stop-color:#FFFFFF"/>
	<stop  offset="0" style="stop-color:#F2C94C"/>
	<stop  offset="1" style="stop-color:#F2994A"/>
</linearGradient>
<line class="st25" x1="668.5" y1="357.5" x2="610.5" y2="357.5"/>
<linearGradient id="SVGID_27_" gradientUnits="userSpaceOnUse" x1="410" y1="429.5" x2="425" y2="429.5">
	<stop  offset="0" style="stop-color:#FFFFFF"/>
	<stop  offset="0" style="stop-color:#F2C94C"/>
	<stop  offset="1" style="stop-color:#F2994A"/>
</linearGradient>
<line class="st26" x1="417.5" y1="400.5" x2="417.5" y2="458.5"/>
<linearGradient id="SVGID_28_" gradientUnits="userSpaceOnUse" x1="411" y1="458.5" x2="484" y2="458.5">
	<stop  offset="0" style="stop-color:#FFFFFF"/>
	<stop  offset="0" style="stop-color:#F2C94C"/>
	<stop  offset="1" style="stop-color:#F2994A"/>
</linearGradient>
<line class="st27" x1="476.5" y1="458.5" x2="418.5" y2="458.5"/>
<linearGradient id="SVGID_29_" gradientUnits="userSpaceOnUse" x1="506" y1="429.5" x2="521" y2="429.5">
	<stop  offset="0" style="stop-color:#FFFFFF"/>
	<stop  offset="0" style="stop-color:#F2C94C"/>
	<stop  offset="1" style="stop-color:#F2994A"/>
</linearGradient>
<line class="st28" x1="513.5" y1="400.5" x2="513.5" y2="458.5"/>
<linearGradient id="SVGID_30_" gradientUnits="userSpaceOnUse" x1="507" y1="458.5" x2="580" y2="458.5">
	<stop  offset="0" style="stop-color:#FFFFFF"/>
	<stop  offset="0" style="stop-color:#F2C94C"/>
	<stop  offset="1" style="stop-color:#F2994A"/>
</linearGradient>
<line class="st29" x1="572.5" y1="458.5" x2="514.5" y2="458.5"/>
<linearGradient id="SVGID_31_" gradientUnits="userSpaceOnUse" x1="602" y1="429.5" x2="617" y2="429.5">
	<stop  offset="0" style="stop-color:#FFFFFF"/>
	<stop  offset="0" style="stop-color:#F2C94C"/>
	<stop  offset="1" style="stop-color:#F2994A"/>
</linearGradient>
<line class="st30" x1="609.5" y1="400.5" x2="609.5" y2="458.5"/>
<linearGradient id="SVGID_32_" gradientUnits="userSpaceOnUse" x1="603" y1="458.5" x2="676" y2="458.5">
	<stop  offset="0" style="stop-color:#FFFFFF"/>
	<stop  offset="0" style="stop-color:#F2C94C"/>
	<stop  offset="1" style="stop-color:#F2994A"/>
</linearGradient>
<line class="st31" x1="668.5" y1="458.5" x2="610.5" y2="458.5"/>
<linearGradient id="SVGID_33_" gradientUnits="userSpaceOnUse" x1="9.1762" y1="604" x2="746.8226" y2="604">
	<stop  offset="0" style="stop-color:#FFFFFF"/>
	<stop  offset="0" style="stop-color:#F2C94C"/>
	<stop  offset="1" style="stop-color:#F2994A"/>
</linearGradient>
<path class="st32" d="M378,701.5c-80.9,0-158.6-16.3-224.6-47C88.3,624.1,39.1,581.9,11.2,532.3c-3.7-6.5-2.3-14.7,3.3-19.7
	c4.1-3.9,10.1-6.1,16.6-6.1h693.7c6.5,0,12.6,2.2,16.7,6.1c5.6,5,6.9,13.2,3.3,19.7l0,0c-27.9,49.5-77.1,91.7-142.2,122.1
	C536.6,685.2,458.9,701.5,378,701.5z M32.7,527.5c26.3,43.3,70.9,80.6,129.6,107.9c63.2,29.5,137.8,45.1,215.7,45.1
	s152.5-15.6,215.7-45.1c58.7-27.4,103.4-64.6,129.6-107.9H32.7z"/>
</svg>
