<?xml version="1.0" encoding="utf-8"?>
<!-- Generator: Adobe Illustrator 24.2.1, SVG Export Plug-In . SVG Version: 6.00 Build 0)  -->
<svg version="1.1" id="Слой_1" xmlns="http://www.w3.org/2000/svg" xmlns:xlink="http://www.w3.org/1999/xlink" x="0px" y="0px"
	 viewBox="0 0 512 512" style="enable-background:new 0 0 512 512;" xml:space="preserve">
<style type="text/css">
	.st0{fill:#F2C94C;stroke:#F2C94C;stroke-width:12;stroke-miterlimit:10;}
	.st1{fill:none;stroke:#F2C94C;stroke-width:23;stroke-miterlimit:10;}
	.st2{fill:#F2C94C;stroke:#F2C94C;stroke-width:23;stroke-miterlimit:10;}
</style>
<g id="_29-no_smoking">
	<g id="linear_color">
		<path class="st0" d="M429.6,82.4c-95.9-95.9-251.3-95.9-347.2,0c-95.9,95.9-95.9,251.3,0,347.2c95.9,95.9,251.3,95.9,347.2,0
			C525.5,333.7,525.5,178.3,429.6,82.4z M256,478.1c-122.5,0-222.1-99.6-222.1-222.1c0-54.9,20.3-107.8,57.1-148.5l70.9,70.9
			l73.7,73.7l39,39l130,130C363.8,457.8,310.9,478.2,256,478.1z M421,404.5l-75.8-75.8l-37.6-37.6L184.3,167.7L107.5,91
			c40.7-36.8,93.6-57.1,148.5-57.1c122.5,0,222.1,99.6,222.1,222.1C478.2,310.9,457.8,363.8,421,404.5z"/>
		<path class="st0" d="M361.2,146.9c0,6.5-5.2,11.7-11.7,11.7c-6.5,0-11.7,5.2-11.7,11.7c0,19.4-15.7,35-35.1,35.1
			c-6.5,0-11.7-5.2-11.7-11.7c0-6.5,5.2-11.7,11.7-11.7c6.5,0,11.7-5.2,11.7-11.7c0-19.4,15.7-35.1,35.1-35.1
			C356,135.2,361.2,140.4,361.2,146.9z"/>
		<path class="st0" d="M423.6,146.9c0,6.5-5.2,11.7-11.7,11.7c-6.5,0-11.7,5.2-11.7,11.7c0,19.4-15.7,35-35.1,35.1
			c-6.5,0-11.7-5.2-11.7-11.7c0-6.5,5.2-11.7,11.7-11.7c6.5,0,11.7-5.2,11.7-11.7c0-19.4,15.7-35.1,35.1-35.1
			C418.3,135.2,423.6,140.4,423.6,146.9z"/>
	</g>
</g>
<path class="st1" d="M362.7,297.6H111c-12.5,0-22.7-10.2-22.7-22.7v-13.1c0-12.5,10.2-22.7,22.7-22.7h251.7
	c12.5,0,22.7,10.2,22.7,22.7v13.1C385.4,287.4,375.3,297.6,362.7,297.6z"/>
<line class="st1" x1="162.2" y1="239.1" x2="162.2" y2="297.6"/>
<path class="st2" d="M133.4,295H121c-9.9,0-17.9-8-17.9-17.9v-12.4c0-9.9,8-17.9,17.9-17.9h12.4c9.9,0,17.9,8,17.9,17.9v12.4
	C151.2,287,143.2,295,133.4,295z"/>
</svg>
