<svg id="Слой_1" data-name="Слой 1" xmlns="http://www.w3.org/2000/svg" xmlns:xlink="http://www.w3.org/1999/xlink" viewBox="0 0 491 835"><defs><style>.cls-1,.cls-2,.cls-6,.cls-7{fill:none;stroke-miterlimit:10;}.cls-1{stroke-width:15px;stroke:url(#Безымянный_градиент_17);}.cls-2{stroke-width:11px;stroke:url(#Безымянный_градиент_17-2);}.cls-3{fill:url(#Безымянный_градиент_19);}.cls-4{fill:url(#Безымянный_градиент_19-2);}.cls-5{fill:url(#Безымянный_градиент_19-3);}.cls-6{stroke-width:9px;stroke:url(#Безымянный_градиент_19-4);}.cls-7{stroke-width:13px;stroke:url(#Безымянный_градиент_19-5);}.cls-8{fill:url(#Безымянный_градиент_19-6);}</style><linearGradient id="Безымянный_градиент_17" x1="15" y1="416.5" x2="476" y2="416.5" gradientUnits="userSpaceOnUse"><stop offset="0" stop-color="#f2c94c"/><stop offset="1" stop-color="#f2994a"/></linearGradient><linearGradient id="Безымянный_градиент_17-2" x1="46" y1="208.5" x2="446" y2="208.5" xlink:href="#Безымянный_градиент_17"/><linearGradient id="Безымянный_градиент_19" x1="166.08" y1="208.34" x2="210.93" y2="208.34" xlink:href="#Безымянный_градиент_17"/><linearGradient id="Безымянный_градиент_19-2" x1="223.23" y1="208.34" x2="268.08" y2="208.34" xlink:href="#Безымянный_градиент_17"/><linearGradient id="Безымянный_градиент_19-3" x1="280.38" y1="208.34" x2="325.23" y2="208.34" xlink:href="#Безымянный_градиент_17"/><linearGradient id="Безымянный_градиент_19-4" x1="211" y1="757.5" x2="281" y2="757.5" xlink:href="#Безымянный_градиент_17"/><linearGradient id="Безымянный_градиент_19-5" x1="22" y1="705" x2="468" y2="705" xlink:href="#Безымянный_градиент_17"/><linearGradient id="Безымянный_градиент_19-6" x1="364.82" y1="324.93" x2="170.36" y2="519.39" xlink:href="#Безымянный_градиент_17"/></defs><rect class="cls-1" x="22.5" y="22.5" width="446" height="788" rx="59.28"/><rect class="cls-2" x="51.5" y="166.5" width="389" height="84" rx="30.12"/><path class="cls-3" d="M177.48,229.94a5.23,5.23,0,0,1-4.13-1.8,6,6,0,0,1-1.57-4,6.23,6.23,0,0,1,.45-2.33,3.93,3.93,0,0,1,1.65-1.87l10.2-8.55-12.15-1.05a6.72,6.72,0,0,1-4.28-1.95,5.45,5.45,0,0,1-1.57-3.9,6,6,0,0,1,1.87-4.28,5.73,5.73,0,0,1,4-1.57,5.4,5.4,0,0,1,1.87.37,9.63,9.63,0,0,1,1.88,1l9.9,6.15L183,194.54l-.3-.9a3.32,3.32,0,0,1-.15-1,5.85,5.85,0,0,1,11.7,0,6.41,6.41,0,0,1-.08,1,5.9,5.9,0,0,1-.22.9l-2.7,11.7,10.95-6.75a5.05,5.05,0,0,1,2.85-.9,5.93,5.93,0,0,1,4,1.65,5.35,5.35,0,0,1,1.88,4.2,5.43,5.43,0,0,1-1.65,4.12,6.24,6.24,0,0,1-4.05,1.73l-12.15,1.05,9.45,7.8a6.15,6.15,0,0,1,2.7,5,5.62,5.62,0,0,1-1.73,4.12,6.38,6.38,0,0,1-4.72,1.73,5.06,5.06,0,0,1-3-1.2,7.83,7.83,0,0,1-1.95-2.7l-5.25-11.7-5.4,11.55a5.55,5.55,0,0,1-5.7,4.05Z"/><path class="cls-4" d="M234.63,229.94a5.23,5.23,0,0,1-4.13-1.8,6,6,0,0,1-1.57-4,6.23,6.23,0,0,1,.45-2.33,3.93,3.93,0,0,1,1.65-1.87l10.2-8.55-12.15-1.05a6.72,6.72,0,0,1-4.28-1.95,5.45,5.45,0,0,1-1.57-3.9,6,6,0,0,1,1.87-4.28,5.73,5.73,0,0,1,4-1.57A5.4,5.4,0,0,1,231,199a9.63,9.63,0,0,1,1.88,1l9.9,6.15-2.55-11.55-.3-.9a3.32,3.32,0,0,1-.15-1,5.85,5.85,0,0,1,11.7,0,6.41,6.41,0,0,1-.08,1,5.9,5.9,0,0,1-.22.9l-2.7,11.7,10.95-6.75a5.05,5.05,0,0,1,2.85-.9,5.93,5.93,0,0,1,4,1.65,5.35,5.35,0,0,1,1.88,4.2,5.43,5.43,0,0,1-1.65,4.12,6.24,6.24,0,0,1-4.05,1.73l-12.15,1.05,9.45,7.8a6.15,6.15,0,0,1,2.7,5,5.62,5.62,0,0,1-1.73,4.12,6.38,6.38,0,0,1-4.72,1.73,5.06,5.06,0,0,1-3-1.2,7.83,7.83,0,0,1-2-2.7l-5.25-11.7-5.4,11.55a5.55,5.55,0,0,1-5.7,4.05Z"/><path class="cls-5" d="M291.78,229.94a5.23,5.23,0,0,1-4.13-1.8,6,6,0,0,1-1.57-4,6.23,6.23,0,0,1,.45-2.33,3.93,3.93,0,0,1,1.65-1.87l10.2-8.55-12.15-1.05a6.72,6.72,0,0,1-4.28-1.95,5.45,5.45,0,0,1-1.57-3.9,6,6,0,0,1,1.87-4.28,5.73,5.73,0,0,1,4-1.57,5.4,5.4,0,0,1,1.87.37,9.63,9.63,0,0,1,1.88,1l9.9,6.15-2.55-11.55-.3-.9a3.32,3.32,0,0,1-.15-1,5.85,5.85,0,0,1,11.7,0,6.41,6.41,0,0,1-.08,1,5.9,5.9,0,0,1-.22.9l-2.7,11.7,10.95-6.75a5.05,5.05,0,0,1,2.85-.9,5.93,5.93,0,0,1,4,1.65,5.35,5.35,0,0,1,1.88,4.2,5.43,5.43,0,0,1-1.65,4.12,6.24,6.24,0,0,1-4.05,1.73l-12.15,1.05,9.45,7.8a6.15,6.15,0,0,1,2.7,5,5.62,5.62,0,0,1-1.73,4.12,6.38,6.38,0,0,1-4.72,1.73,5.06,5.06,0,0,1-3-1.2,7.83,7.83,0,0,1-1.95-2.7l-5.25-11.7-5.4,11.55a5.55,5.55,0,0,1-5.7,4.05Z"/><circle class="cls-6" cx="246" cy="757.5" r="30.5"/><line class="cls-7" x1="22" y1="705" x2="468" y2="705"/><path class="cls-8" d="M411.47,398.44,253.27,556.63l-10.44,10.44a16.65,16.65,0,0,1-24.8,0l-94.32-94.32a19,19,0,0,1,0-26.87l4.24-4.24a19,19,0,0,1,26.87,0l75.61,75.6L380.35,367.32a19,19,0,0,1,26.87,0l4.25,4.25A19,19,0,0,1,411.47,398.44Z"/></svg>