<?xml version="1.0" encoding="utf-8"?>
<!-- Generator: Adobe Illustrator 24.2.1, SVG Export Plug-In . SVG Version: 6.00 Build 0)  -->
<svg version="1.1" id="Слой_1" xmlns="http://www.w3.org/2000/svg" xmlns:xlink="http://www.w3.org/1999/xlink" x="0px" y="0px"
	 viewBox="0 0 512 512" style="enable-background:new 0 0 512 512;" xml:space="preserve">
<style type="text/css">
	.st0{fill:url(#SVGID_1_);}
	.st1{fill:url(#SVGID_2_);}
	.st2{fill:url(#SVGID_3_);}
	.st3{fill:url(#SVGID_4_);}
	.st4{fill:url(#SVGID_5_);}
	.st5{fill:url(#SVGID_6_);}
	.st6{fill:url(#SVGID_7_);}
	.st7{fill:url(#SVGID_8_);}
	.st8{fill:url(#SVGID_9_);}
	.st9{fill:url(#SVGID_10_);}
	.st10{fill:url(#SVGID_11_);}
	.st11{fill:url(#SVGID_12_);}
	.st12{fill:url(#SVGID_13_);}
</style>
<linearGradient id="SVGID_1_" gradientUnits="userSpaceOnUse" x1="149.1953" y1="164.9735" x2="212.8047" y2="228.5828">
	<stop  offset="0" style="stop-color:#F2994A"/>
	<stop  offset="1" style="stop-color:#F2C94C"/>
</linearGradient>
<circle class="st0" cx="181" cy="196.8" r="45"/>
<linearGradient id="SVGID_2_" gradientUnits="userSpaceOnUse" x1="119.1773" y1="272.8465" x2="227.9454" y2="381.6146">
	<stop  offset="0" style="stop-color:#F2994A"/>
	<stop  offset="1" style="stop-color:#F2C94C"/>
</linearGradient>
<path class="st1" d="M191.5,414.5c-10.2,8-18.9,17.8-25.5,29c-6.7-11.2-15.3-21-25.5-29c6.5-11.1,10.5-23.9,10.5-37.7
	c0-30.3-18.2-56.4-44.2-68.2c4.1-37.5,35.6-66.8,74.2-66.8c36.3,0,66.6,25.9,73.5,60.1c-40.7,0.8-73.5,34-73.5,74.9
	C181,390.6,185,403.4,191.5,414.5z"/>
<linearGradient id="SVGID_3_" gradientUnits="userSpaceOnUse" x1="44.1953" y1="344.9734" x2="107.8047" y2="408.5828">
	<stop  offset="0" style="stop-color:#F2994A"/>
	<stop  offset="1" style="stop-color:#F2C94C"/>
</linearGradient>
<circle class="st2" cx="76" cy="376.8" r="45"/>
<linearGradient id="SVGID_4_" gradientUnits="userSpaceOnUse" x1="28.6825" y1="438.8513" x2="121.9125" y2="532.0812">
	<stop  offset="0" style="stop-color:#F2994A"/>
	<stop  offset="1" style="stop-color:#F2C94C"/>
</linearGradient>
<path class="st3" d="M151,496.8c0,8.3-6.7,15-15,15H10.6C4.7,511.8,0,507,0,501.2c0-39.2,29.2-75,68.2-79c2.6-0.3,5.2-0.4,7.8-0.4
	C117.4,421.8,151,455.4,151,496.8z"/>
<linearGradient id="SVGID_5_" gradientUnits="userSpaceOnUse" x1="209.1916" y1="437.5685" x2="302.8084" y2="531.1853">
	<stop  offset="0" style="stop-color:#F2994A"/>
	<stop  offset="1" style="stop-color:#F2C94C"/>
</linearGradient>
<path class="st4" d="M331,496.8c0,8.3-6.7,15-15,15H196c-8.3,0-15-6.7-15-15c0-41.4,33.6-75,75-75S331,455.4,331,496.8z"/>
<linearGradient id="SVGID_6_" gradientUnits="userSpaceOnUse" x1="299.1953" y1="164.9735" x2="362.8047" y2="228.5828">
	<stop  offset="0" style="stop-color:#F2994A"/>
	<stop  offset="1" style="stop-color:#F2C94C"/>
</linearGradient>
<circle class="st5" cx="331" cy="196.8" r="45"/>
<linearGradient id="SVGID_7_" gradientUnits="userSpaceOnUse" x1="72.8931" y1="26.8769" x2="139.1069" y2="93.0906">
	<stop  offset="0" style="stop-color:#F2994A"/>
	<stop  offset="1" style="stop-color:#F2C94C"/>
</linearGradient>
<path class="st6" d="M65.4,55.6c-5.9-5.9-5.9-15.4,0-21.2l30-30c5.8-5.8,15.3-5.9,21.2,0l30,30c5.9,5.8,5.9,15.3,0,21.2
	c-5.9,5.9-15.4,5.9-21.2,0l-4.4-4.4V105c0,8.3-6.7,15-15,15s-15-6.7-15-15V51.2l-4.4,4.4C80.8,61.4,71.3,61.4,65.4,55.6z"/>
<linearGradient id="SVGID_8_" gradientUnits="userSpaceOnUse" x1="276.4933" y1="265.2852" x2="400.3841" y2="389.1759">
	<stop  offset="0" style="stop-color:#F2994A"/>
	<stop  offset="1" style="stop-color:#F2C94C"/>
</linearGradient>
<path class="st7" d="M371.5,414.5c-10.2,8-18.9,17.8-25.5,29c-6.7-11.2-15.3-21-25.5-29c6.5-11.1,10.5-23.9,10.5-37.7
	c0-40.8-32.8-74-73.5-74.9c6.9-34.3,37.2-60.1,73.5-60.1c38.6,0,70,29.3,74.2,66.8c-26,11.8-44.2,37.8-44.2,68.2
	C361,390.6,365,403.4,371.5,414.5z"/>
<linearGradient id="SVGID_9_" gradientUnits="userSpaceOnUse" x1="222.8931" y1="26.8769" x2="289.1069" y2="93.0906">
	<stop  offset="0" style="stop-color:#F2994A"/>
	<stop  offset="1" style="stop-color:#F2C94C"/>
</linearGradient>
<path class="st8" d="M215.4,55.6c-5.9-5.9-5.9-15.4,0-21.2l30-30c5.8-5.8,15.4-5.9,21.2,0l30,30c5.9,5.8,5.9,15.3,0,21.2
	c-5.9,5.9-15.4,5.9-21.2,0l-4.4-4.4V105c0,8.3-6.7,15-15,15s-15-6.7-15-15V51.2l-4.4,4.4C230.8,61.4,221.3,61.4,215.4,55.6z"/>
<linearGradient id="SVGID_10_" gradientUnits="userSpaceOnUse" x1="224.1953" y1="344.9734" x2="287.8047" y2="408.5828">
	<stop  offset="0" style="stop-color:#F2994A"/>
	<stop  offset="1" style="stop-color:#F2C94C"/>
</linearGradient>
<circle class="st9" cx="256" cy="376.8" r="45"/>
<linearGradient id="SVGID_11_" gradientUnits="userSpaceOnUse" x1="389.3177" y1="437.4424" x2="483.4345" y2="531.5592">
	<stop  offset="0" style="stop-color:#F2994A"/>
	<stop  offset="1" style="stop-color:#F2C94C"/>
</linearGradient>
<path class="st10" d="M512,496.8c0,8.3-6.7,15-15,15H376c-8.3,0-15-6.7-15-15c0-41.4,33.6-75,75-75S512,455.4,512,496.8z"/>
<linearGradient id="SVGID_12_" gradientUnits="userSpaceOnUse" x1="372.8931" y1="26.8769" x2="439.1069" y2="93.0906">
	<stop  offset="0" style="stop-color:#F2994A"/>
	<stop  offset="1" style="stop-color:#F2C94C"/>
</linearGradient>
<path class="st11" d="M365.4,55.6c-5.9-5.9-5.9-15.4,0-21.2l30-30c5.8-5.8,15.4-5.9,21.2,0l30,30c5.9,5.8,5.9,15.3,0,21.2
	c-5.9,5.9-15.4,5.9-21.2,0l-4.4-4.4V105c0,8.3-6.7,15-15,15s-15-6.7-15-15V51.2l-4.4,4.4C380.8,61.4,371.3,61.4,365.4,55.6z"/>
<linearGradient id="SVGID_13_" gradientUnits="userSpaceOnUse" x1="404.1953" y1="344.9734" x2="467.8047" y2="408.5828">
	<stop  offset="0" style="stop-color:#F2994A"/>
	<stop  offset="1" style="stop-color:#F2C94C"/>
</linearGradient>
<circle class="st12" cx="436" cy="376.8" r="45"/>
</svg>
